<mxfile host="www.draw.io" modified="2019-10-31T19:24:02.217Z" agent="Mozilla/5.0 (Windows NT 10.0; Win64; x64) AppleWebKit/537.36 (KHTML, like Gecko) Chrome/78.0.3904.70 Safari/537.36" etag="m2_0lIeNH3J9D6laVjAg" version="12.1.9" type="github" pages="1">
  <diagram id="CBbktbOBXvS9cst6_eql" name="Page-1">
    <mxGraphModel dx="1295" dy="721" grid="1" gridSize="10" guides="1" tooltips="1" connect="1" arrows="1" fold="1" page="1" pageScale="1" pageWidth="827" pageHeight="1169" math="0" shadow="0">
      <root>
        <mxCell id="0"/>
        <mxCell id="1" parent="0"/>
        <mxCell id="11jOBxVTlYkv2niFwlN6-1" value="Kubernetes" style="shape=folder;fontStyle=1;spacingTop=10;tabWidth=40;tabHeight=14;tabPosition=left;html=1;align=left;verticalAlign=top;fillColor=#dae8fc;strokeColor=#6c8ebf;" vertex="1" parent="1">
          <mxGeometry x="140" y="20" width="570" height="410" as="geometry"/>
        </mxCell>
        <mxCell id="11jOBxVTlYkv2niFwlN6-2" value="«kubernetes»&lt;br&gt;&lt;b&gt;secret&lt;/b&gt;" style="html=1;align=left;fillColor=#99CCFF;strokeColor=#3399FF;" vertex="1" parent="1">
          <mxGeometry x="170" y="150" width="180" height="90" as="geometry"/>
        </mxCell>
        <mxCell id="11jOBxVTlYkv2niFwlN6-3" value="" style="shape=component;jettyWidth=8;jettyHeight=4;" vertex="1" parent="11jOBxVTlYkv2niFwlN6-2">
          <mxGeometry x="1" width="20" height="20" relative="1" as="geometry">
            <mxPoint x="-27" y="7" as="offset"/>
          </mxGeometry>
        </mxCell>
        <mxCell id="11jOBxVTlYkv2niFwlN6-9" style="edgeStyle=orthogonalEdgeStyle;rounded=0;orthogonalLoop=1;jettySize=auto;html=1;" edge="1" parent="1" source="11jOBxVTlYkv2niFwlN6-4" target="11jOBxVTlYkv2niFwlN6-2">
          <mxGeometry relative="1" as="geometry"/>
        </mxCell>
        <mxCell id="11jOBxVTlYkv2niFwlN6-4" value="«kubernetes»&lt;br&gt;&lt;b&gt;external service&lt;/b&gt;" style="html=1;align=left;fillColor=#99CCFF;strokeColor=#3399FF;" vertex="1" parent="1">
          <mxGeometry x="510" y="150" width="180" height="90" as="geometry"/>
        </mxCell>
        <mxCell id="11jOBxVTlYkv2niFwlN6-5" value="" style="shape=component;jettyWidth=8;jettyHeight=4;" vertex="1" parent="11jOBxVTlYkv2niFwlN6-4">
          <mxGeometry x="1" width="20" height="20" relative="1" as="geometry">
            <mxPoint x="-27" y="7" as="offset"/>
          </mxGeometry>
        </mxCell>
        <mxCell id="11jOBxVTlYkv2niFwlN6-6" value="istio" style="shape=folder;fontStyle=1;spacingTop=10;tabWidth=40;tabHeight=14;tabPosition=left;html=1;align=left;verticalAlign=top;fillColor=#d5e8d4;strokeColor=#82b366;" vertex="1" parent="1">
          <mxGeometry x="185" y="270" width="240" height="140" as="geometry"/>
        </mxCell>
        <mxCell id="11jOBxVTlYkv2niFwlN6-7" value="«istio»&lt;br&gt;&lt;b&gt;virtual service&lt;/b&gt;" style="html=1;align=left;fillColor=#B2C2B1;strokeColor=#6A9153;" vertex="1" parent="1">
          <mxGeometry x="215" y="300" width="180" height="90" as="geometry"/>
        </mxCell>
        <mxCell id="11jOBxVTlYkv2niFwlN6-8" value="" style="shape=component;jettyWidth=8;jettyHeight=4;" vertex="1" parent="11jOBxVTlYkv2niFwlN6-7">
          <mxGeometry x="1" width="20" height="20" relative="1" as="geometry">
            <mxPoint x="-27" y="7" as="offset"/>
          </mxGeometry>
        </mxCell>
        <mxCell id="11jOBxVTlYkv2niFwlN6-11" value="Extends" style="endArrow=block;endSize=16;endFill=0;html=1;entryX=0.5;entryY=1;entryDx=0;entryDy=0;exitX=0.25;exitY=0;exitDx=0;exitDy=0;labelBackgroundColor=none;" edge="1" parent="1" source="11jOBxVTlYkv2niFwlN6-7" target="11jOBxVTlYkv2niFwlN6-2">
          <mxGeometry width="160" relative="1" as="geometry">
            <mxPoint x="140" y="470" as="sourcePoint"/>
            <mxPoint x="300" y="470" as="targetPoint"/>
          </mxGeometry>
        </mxCell>
        <mxCell id="11jOBxVTlYkv2niFwlN6-15" style="edgeStyle=orthogonalEdgeStyle;rounded=0;orthogonalLoop=1;jettySize=auto;html=1;labelBackgroundColor=none;" edge="1" parent="1" source="11jOBxVTlYkv2niFwlN6-13" target="11jOBxVTlYkv2niFwlN6-4">
          <mxGeometry relative="1" as="geometry"/>
        </mxCell>
        <mxCell id="11jOBxVTlYkv2niFwlN6-16" style="edgeStyle=orthogonalEdgeStyle;rounded=0;orthogonalLoop=1;jettySize=auto;html=1;entryX=1;entryY=0.75;entryDx=0;entryDy=0;labelBackgroundColor=none;" edge="1" parent="1" source="11jOBxVTlYkv2niFwlN6-13" target="11jOBxVTlYkv2niFwlN6-2">
          <mxGeometry relative="1" as="geometry">
            <Array as="points">
              <mxPoint x="600" y="260"/>
              <mxPoint x="430" y="260"/>
              <mxPoint x="430" y="218"/>
            </Array>
          </mxGeometry>
        </mxCell>
        <mxCell id="11jOBxVTlYkv2niFwlN6-22" style="edgeStyle=orthogonalEdgeStyle;rounded=0;orthogonalLoop=1;jettySize=auto;html=1;entryX=0.5;entryY=1;entryDx=0;entryDy=0;labelBackgroundColor=none;" edge="1" parent="1" source="11jOBxVTlYkv2niFwlN6-13" target="11jOBxVTlYkv2niFwlN6-20">
          <mxGeometry relative="1" as="geometry">
            <Array as="points">
              <mxPoint x="600" y="260"/>
              <mxPoint x="430" y="260"/>
            </Array>
          </mxGeometry>
        </mxCell>
        <mxCell id="11jOBxVTlYkv2niFwlN6-13" value="«kubernetes»&lt;br&gt;&lt;b&gt;pod&lt;/b&gt;" style="html=1;align=left;fillColor=#99CCFF;strokeColor=#3399FF;" vertex="1" parent="1">
          <mxGeometry x="510" y="310" width="180" height="90" as="geometry"/>
        </mxCell>
        <mxCell id="11jOBxVTlYkv2niFwlN6-14" value="" style="shape=component;jettyWidth=8;jettyHeight=4;" vertex="1" parent="11jOBxVTlYkv2niFwlN6-13">
          <mxGeometry x="1" width="20" height="20" relative="1" as="geometry">
            <mxPoint x="-27" y="7" as="offset"/>
          </mxGeometry>
        </mxCell>
        <mxCell id="11jOBxVTlYkv2niFwlN6-17" value="uk.co.vitality.msa.membermanager" style="shape=folder;fontStyle=1;spacingTop=10;tabWidth=40;tabHeight=14;tabPosition=left;html=1;strokeColor=#d6b656;fillColor=#F0E3C0;align=left;verticalAlign=top;" vertex="1" parent="1">
          <mxGeometry x="270" y="514" width="270" height="140" as="geometry"/>
        </mxCell>
        <mxCell id="11jOBxVTlYkv2niFwlN6-12" value="«microservice»&#xa;member-upload" style="shape=component;align=left;spacingLeft=36;strokeColor=#d6b656;fillColor=#fff2cc;" vertex="1" parent="1">
          <mxGeometry x="320" y="564" width="150" height="60" as="geometry"/>
        </mxCell>
        <mxCell id="11jOBxVTlYkv2niFwlN6-20" value="«kubernetes»&lt;br&gt;&lt;b&gt;namespace&lt;/b&gt;" style="html=1;align=left;fillColor=#99CCFF;strokeColor=#3399FF;" vertex="1" parent="1">
          <mxGeometry x="340" y="40" width="180" height="90" as="geometry"/>
        </mxCell>
        <mxCell id="11jOBxVTlYkv2niFwlN6-21" value="" style="shape=component;jettyWidth=8;jettyHeight=4;" vertex="1" parent="11jOBxVTlYkv2niFwlN6-20">
          <mxGeometry x="1" width="20" height="20" relative="1" as="geometry">
            <mxPoint x="-27" y="7" as="offset"/>
          </mxGeometry>
        </mxCell>
        <mxCell id="11jOBxVTlYkv2niFwlN6-23" value="Use" style="endArrow=open;endSize=12;dashed=1;html=1;labelBackgroundColor=none;entryX=0.5;entryY=1;entryDx=0;entryDy=0;entryPerimeter=0;exitX=0;exitY=0;exitDx=155;exitDy=14;exitPerimeter=0;" edge="1" parent="1" source="11jOBxVTlYkv2niFwlN6-17" target="11jOBxVTlYkv2niFwlN6-1">
          <mxGeometry width="160" relative="1" as="geometry">
            <mxPoint x="250" y="710" as="sourcePoint"/>
            <mxPoint x="410" y="710" as="targetPoint"/>
          </mxGeometry>
        </mxCell>
      </root>
    </mxGraphModel>
  </diagram>
</mxfile>
